<mxfile host="app.diagrams.net" modified="2024-01-01T03:10:29.659Z" agent="Mozilla/5.0 (X11; Ubuntu; Linux x86_64; rv:121.0) Gecko/20100101 Firefox/121.0" etag="v2d8D_ynDhWDOQ360B3h" version="22.1.16" type="device">
  <diagram name="Page-1" id="DiPL_aiBBNL9Md9-KrDW">
    <mxGraphModel dx="1376" dy="766" grid="1" gridSize="10" guides="1" tooltips="1" connect="1" arrows="1" fold="1" page="1" pageScale="1" pageWidth="850" pageHeight="1100" math="0" shadow="0">
      <root>
        <mxCell id="0" />
        <mxCell id="1" parent="0" />
        <mxCell id="l1uv4vAsVJdocjP3RGzY-3" value="" style="sketch=0;points=[[0,0,0],[0.25,0,0],[0.5,0,0],[0.75,0,0],[1,0,0],[0,1,0],[0.25,1,0],[0.5,1,0],[0.75,1,0],[1,1,0],[0,0.25,0],[0,0.5,0],[0,0.75,0],[1,0.25,0],[1,0.5,0],[1,0.75,0]];outlineConnect=0;fontColor=#232F3E;fillColor=#7AA116;strokeColor=#ffffff;dashed=0;verticalLabelPosition=bottom;verticalAlign=top;align=center;html=1;fontSize=12;fontStyle=0;aspect=fixed;shape=mxgraph.aws4.resourceIcon;resIcon=mxgraph.aws4.s3;" vertex="1" parent="1">
          <mxGeometry x="366.5" y="118" width="78" height="78" as="geometry" />
        </mxCell>
        <mxCell id="l1uv4vAsVJdocjP3RGzY-4" value="&lt;div&gt;&lt;b&gt;NLP Results in AWS S3 Bucket&lt;/b&gt;&lt;/div&gt;" style="text;html=1;strokeColor=none;fillColor=none;align=center;verticalAlign=middle;whiteSpace=wrap;rounded=0;" vertex="1" parent="1">
          <mxGeometry x="360" y="196" width="91" height="52" as="geometry" />
        </mxCell>
        <mxCell id="l1uv4vAsVJdocjP3RGzY-6" value="" style="sketch=0;outlineConnect=0;fontColor=#232F3E;gradientColor=none;fillColor=#8C4FFF;strokeColor=none;dashed=0;verticalLabelPosition=bottom;verticalAlign=top;align=center;html=1;fontSize=12;fontStyle=0;aspect=fixed;pointerEvents=1;shape=mxgraph.aws4.glue_data_catalog;" vertex="1" parent="1">
          <mxGeometry x="673.5" y="118" width="72" height="78" as="geometry" />
        </mxCell>
        <mxCell id="l1uv4vAsVJdocjP3RGzY-7" value="" style="sketch=0;points=[[0,0,0],[0.25,0,0],[0.5,0,0],[0.75,0,0],[1,0,0],[0,1,0],[0.25,1,0],[0.5,1,0],[0.75,1,0],[1,1,0],[0,0.25,0],[0,0.5,0],[0,0.75,0],[1,0.25,0],[1,0.5,0],[1,0.75,0]];outlineConnect=0;fontColor=#232F3E;fillColor=#8C4FFF;strokeColor=#ffffff;dashed=0;verticalLabelPosition=bottom;verticalAlign=top;align=center;html=1;fontSize=12;fontStyle=0;aspect=fixed;shape=mxgraph.aws4.resourceIcon;resIcon=mxgraph.aws4.glue;" vertex="1" parent="1">
          <mxGeometry x="510.5" y="118" width="78" height="78" as="geometry" />
        </mxCell>
        <mxCell id="l1uv4vAsVJdocjP3RGzY-8" value="&lt;div&gt;&lt;b&gt;AWS Glue Crawler &lt;/b&gt;&lt;br&gt;&lt;/div&gt;" style="text;html=1;strokeColor=none;fillColor=none;align=center;verticalAlign=middle;whiteSpace=wrap;rounded=0;" vertex="1" parent="1">
          <mxGeometry x="504" y="206" width="91" height="34" as="geometry" />
        </mxCell>
        <mxCell id="l1uv4vAsVJdocjP3RGzY-9" value="&lt;div&gt;&lt;b&gt;AWS Glue&amp;nbsp;&lt;/b&gt;&lt;/div&gt;&lt;div&gt;&lt;b&gt;Data Catalog&lt;/b&gt;&lt;/div&gt;" style="text;html=1;strokeColor=none;fillColor=none;align=center;verticalAlign=middle;whiteSpace=wrap;rounded=0;" vertex="1" parent="1">
          <mxGeometry x="664" y="206" width="91" height="34" as="geometry" />
        </mxCell>
        <mxCell id="l1uv4vAsVJdocjP3RGzY-10" value="" style="sketch=0;outlineConnect=0;fontColor=#232F3E;gradientColor=none;fillColor=#C925D1;strokeColor=none;dashed=0;verticalLabelPosition=bottom;verticalAlign=top;align=center;html=1;fontSize=12;fontStyle=0;aspect=fixed;pointerEvents=1;shape=mxgraph.aws4.rds_instance;" vertex="1" parent="1">
          <mxGeometry x="510.5" y="310" width="78" height="78" as="geometry" />
        </mxCell>
        <mxCell id="l1uv4vAsVJdocjP3RGzY-11" value="&lt;div&gt;&lt;b&gt;RDS SQL Server&lt;/b&gt;&lt;br&gt;&lt;/div&gt;" style="text;html=1;strokeColor=none;fillColor=none;align=center;verticalAlign=middle;whiteSpace=wrap;rounded=0;" vertex="1" parent="1">
          <mxGeometry x="443.5" y="333" width="60.5" height="32" as="geometry" />
        </mxCell>
        <mxCell id="l1uv4vAsVJdocjP3RGzY-15" value="" style="endArrow=classic;html=1;rounded=0;exitX=1;exitY=0.5;exitDx=0;exitDy=0;exitPerimeter=0;" edge="1" parent="1" source="l1uv4vAsVJdocjP3RGzY-7" target="l1uv4vAsVJdocjP3RGzY-6">
          <mxGeometry width="50" height="50" relative="1" as="geometry">
            <mxPoint x="694" y="320" as="sourcePoint" />
            <mxPoint x="744" y="270" as="targetPoint" />
          </mxGeometry>
        </mxCell>
        <mxCell id="l1uv4vAsVJdocjP3RGzY-16" value="" style="sketch=0;outlineConnect=0;fontColor=#232F3E;gradientColor=none;fillColor=#DD344C;strokeColor=none;dashed=0;verticalLabelPosition=bottom;verticalAlign=top;align=center;html=1;fontSize=12;fontStyle=0;aspect=fixed;pointerEvents=1;shape=mxgraph.aws4.role;" vertex="1" parent="1">
          <mxGeometry x="510.5" width="78" height="44" as="geometry" />
        </mxCell>
        <mxCell id="l1uv4vAsVJdocjP3RGzY-17" value="&lt;div&gt;IAM role&lt;br&gt;&lt;/div&gt;" style="text;html=1;strokeColor=none;fillColor=none;align=center;verticalAlign=middle;whiteSpace=wrap;rounded=0;" vertex="1" parent="1">
          <mxGeometry x="504" y="50" width="91" height="20" as="geometry" />
        </mxCell>
        <mxCell id="l1uv4vAsVJdocjP3RGzY-18" value="" style="endArrow=classic;html=1;rounded=0;exitX=0.5;exitY=1;exitDx=0;exitDy=0;" edge="1" parent="1" source="l1uv4vAsVJdocjP3RGzY-17" target="l1uv4vAsVJdocjP3RGzY-7">
          <mxGeometry width="50" height="50" relative="1" as="geometry">
            <mxPoint x="730" y="240" as="sourcePoint" />
            <mxPoint x="780" y="190" as="targetPoint" />
          </mxGeometry>
        </mxCell>
        <mxCell id="l1uv4vAsVJdocjP3RGzY-19" value="" style="sketch=0;points=[[0,0,0],[0.25,0,0],[0.5,0,0],[0.75,0,0],[1,0,0],[0,1,0],[0.25,1,0],[0.5,1,0],[0.75,1,0],[1,1,0],[0,0.25,0],[0,0.5,0],[0,0.75,0],[1,0.25,0],[1,0.5,0],[1,0.75,0]];outlineConnect=0;fontColor=#232F3E;fillColor=#8C4FFF;strokeColor=#ffffff;dashed=0;verticalLabelPosition=bottom;verticalAlign=top;align=center;html=1;fontSize=12;fontStyle=0;aspect=fixed;shape=mxgraph.aws4.resourceIcon;resIcon=mxgraph.aws4.glue;" vertex="1" parent="1">
          <mxGeometry x="667.5" y="310" width="78" height="78" as="geometry" />
        </mxCell>
        <mxCell id="l1uv4vAsVJdocjP3RGzY-20" value="&lt;div&gt;&lt;b&gt;AWS Glue Job&lt;/b&gt;&lt;br&gt;&lt;/div&gt;" style="text;html=1;strokeColor=none;fillColor=none;align=center;verticalAlign=middle;whiteSpace=wrap;rounded=0;" vertex="1" parent="1">
          <mxGeometry x="755" y="337" width="91" height="24" as="geometry" />
        </mxCell>
        <mxCell id="l1uv4vAsVJdocjP3RGzY-21" value="" style="endArrow=classic;html=1;rounded=0;" edge="1" parent="1" source="l1uv4vAsVJdocjP3RGzY-9">
          <mxGeometry width="50" height="50" relative="1" as="geometry">
            <mxPoint x="716" y="220" as="sourcePoint" />
            <mxPoint x="710" y="310" as="targetPoint" />
          </mxGeometry>
        </mxCell>
        <mxCell id="l1uv4vAsVJdocjP3RGzY-24" value="" style="endArrow=classic;html=1;rounded=0;exitX=0;exitY=0.5;exitDx=0;exitDy=0;exitPerimeter=0;" edge="1" parent="1" source="l1uv4vAsVJdocjP3RGzY-19" target="l1uv4vAsVJdocjP3RGzY-10">
          <mxGeometry width="50" height="50" relative="1" as="geometry">
            <mxPoint x="730" y="360" as="sourcePoint" />
            <mxPoint x="780" y="310" as="targetPoint" />
          </mxGeometry>
        </mxCell>
        <mxCell id="l1uv4vAsVJdocjP3RGzY-28" value="&lt;div align=&quot;justify&quot;&gt;&lt;br&gt;&lt;/div&gt;&lt;div align=&quot;justify&quot;&gt;(1) DDL_DB_nlp - Create database&lt;/div&gt;&lt;div align=&quot;justify&quot;&gt;(2) DDL_TBL_nlpresultstg - Create Staging table&lt;/div&gt;&lt;div align=&quot;justify&quot;&gt;(3) DDL_TBL_dimChart - Dimension table for chart&lt;/div&gt;&lt;div align=&quot;justify&quot;&gt;(4) DDL_TBL_dimDiag - Dimension table for diags&lt;/div&gt;&lt;div align=&quot;justify&quot;&gt;(5) DDL_TBL_factnlpresult - Fact table for nlp results&lt;br&gt;&lt;/div&gt;&lt;div align=&quot;justify&quot;&gt;(6) uspNlpResultCreateUpdateDimensionModel -&amp;nbsp;&lt;/div&gt;&lt;div align=&quot;justify&quot;&gt;&amp;nbsp;&amp;nbsp;&amp;nbsp;&amp;nbsp;&amp;nbsp;&amp;nbsp;&amp;nbsp;&amp;nbsp;&amp;nbsp;&amp;nbsp;&amp;nbsp;&amp;nbsp;&amp;nbsp; stored procedure to build dimensional model&lt;br&gt;&lt;/div&gt;" style="points=[[0.25,0,0],[0.5,0,0],[0.75,0,0],[1,0.25,0],[1,0.5,0],[1,0.75,0],[0.75,1,0],[0.5,1,0],[0.25,1,0],[0,0.75,0],[0,0.5,0],[0,0.25,0]];shape=mxgraph.bpmn.task;whiteSpace=wrap;rectStyle=rounded;size=10;html=1;container=1;expand=0;collapsible=0;taskMarker=script;" vertex="1" parent="1">
          <mxGeometry x="10" y="310" width="330" height="120" as="geometry" />
        </mxCell>
        <mxCell id="l1uv4vAsVJdocjP3RGzY-33" value="" style="endArrow=classic;html=1;rounded=0;exitX=1;exitY=0.5;exitDx=0;exitDy=0;exitPerimeter=0;entryX=-0.006;entryY=0.77;entryDx=0;entryDy=0;entryPerimeter=0;" edge="1" parent="1" source="l1uv4vAsVJdocjP3RGzY-28" target="l1uv4vAsVJdocjP3RGzY-10">
          <mxGeometry width="50" height="50" relative="1" as="geometry">
            <mxPoint x="400" y="390" as="sourcePoint" />
            <mxPoint x="450" y="340" as="targetPoint" />
          </mxGeometry>
        </mxCell>
        <mxCell id="l1uv4vAsVJdocjP3RGzY-34" value="&lt;div&gt;&lt;b&gt;SQL Scripts&lt;/b&gt;&lt;br&gt;&lt;/div&gt;" style="text;html=1;strokeColor=none;fillColor=none;align=center;verticalAlign=middle;whiteSpace=wrap;rounded=0;" vertex="1" parent="1">
          <mxGeometry x="120" y="290" width="90" height="20" as="geometry" />
        </mxCell>
        <mxCell id="l1uv4vAsVJdocjP3RGzY-36" value="" style="endArrow=classic;startArrow=classic;html=1;rounded=0;entryX=0.5;entryY=1;entryDx=0;entryDy=0;" edge="1" parent="1" source="l1uv4vAsVJdocjP3RGzY-10" target="l1uv4vAsVJdocjP3RGzY-8">
          <mxGeometry width="50" height="50" relative="1" as="geometry">
            <mxPoint x="400" y="360" as="sourcePoint" />
            <mxPoint x="450" y="310" as="targetPoint" />
          </mxGeometry>
        </mxCell>
        <mxCell id="l1uv4vAsVJdocjP3RGzY-37" value="" style="endArrow=classic;startArrow=classic;html=1;rounded=0;entryX=0;entryY=0.5;entryDx=0;entryDy=0;entryPerimeter=0;exitX=1;exitY=0.5;exitDx=0;exitDy=0;exitPerimeter=0;" edge="1" parent="1" source="l1uv4vAsVJdocjP3RGzY-3" target="l1uv4vAsVJdocjP3RGzY-7">
          <mxGeometry width="50" height="50" relative="1" as="geometry">
            <mxPoint x="400" y="360" as="sourcePoint" />
            <mxPoint x="450" y="310" as="targetPoint" />
          </mxGeometry>
        </mxCell>
        <mxCell id="l1uv4vAsVJdocjP3RGzY-62" value="Database: nlp" style="swimlane;whiteSpace=wrap;html=1;" vertex="1" parent="1">
          <mxGeometry x="329.5" y="450" width="440" height="200" as="geometry" />
        </mxCell>
        <mxCell id="l1uv4vAsVJdocjP3RGzY-64" value="factnlpresult" style="rounded=1;arcSize=10;whiteSpace=wrap;html=1;align=center;" vertex="1" parent="l1uv4vAsVJdocjP3RGzY-62">
          <mxGeometry x="173" y="130" width="100" height="40" as="geometry" />
        </mxCell>
        <mxCell id="l1uv4vAsVJdocjP3RGzY-65" value="dimChart" style="rounded=1;arcSize=10;whiteSpace=wrap;html=1;align=center;" vertex="1" parent="l1uv4vAsVJdocjP3RGzY-62">
          <mxGeometry x="40" y="130" width="100" height="40" as="geometry" />
        </mxCell>
        <mxCell id="l1uv4vAsVJdocjP3RGzY-66" value="dimDiag" style="rounded=1;arcSize=10;whiteSpace=wrap;html=1;align=center;" vertex="1" parent="l1uv4vAsVJdocjP3RGzY-62">
          <mxGeometry x="310" y="130" width="100" height="40" as="geometry" />
        </mxCell>
        <mxCell id="l1uv4vAsVJdocjP3RGzY-67" value="nlpresultstg" style="rounded=1;arcSize=10;whiteSpace=wrap;html=1;align=center;" vertex="1" parent="l1uv4vAsVJdocjP3RGzY-62">
          <mxGeometry x="160" y="40" width="100" height="40" as="geometry" />
        </mxCell>
        <mxCell id="l1uv4vAsVJdocjP3RGzY-68" value="" style="endArrow=classic;html=1;rounded=0;exitX=0.5;exitY=1;exitDx=0;exitDy=0;entryX=0.57;entryY=-0.025;entryDx=0;entryDy=0;entryPerimeter=0;" edge="1" parent="l1uv4vAsVJdocjP3RGzY-62" source="l1uv4vAsVJdocjP3RGzY-67" target="l1uv4vAsVJdocjP3RGzY-65">
          <mxGeometry width="50" height="50" relative="1" as="geometry">
            <mxPoint x="85" as="sourcePoint" />
            <mxPoint x="135" y="-50" as="targetPoint" />
          </mxGeometry>
        </mxCell>
        <mxCell id="l1uv4vAsVJdocjP3RGzY-69" value="" style="endArrow=classic;html=1;rounded=0;exitX=0.5;exitY=1;exitDx=0;exitDy=0;entryX=0.37;entryY=0;entryDx=0;entryDy=0;entryPerimeter=0;" edge="1" parent="l1uv4vAsVJdocjP3RGzY-62" source="l1uv4vAsVJdocjP3RGzY-67" target="l1uv4vAsVJdocjP3RGzY-64">
          <mxGeometry width="50" height="50" relative="1" as="geometry">
            <mxPoint x="60" y="-30" as="sourcePoint" />
            <mxPoint x="110" y="-80" as="targetPoint" />
          </mxGeometry>
        </mxCell>
        <mxCell id="l1uv4vAsVJdocjP3RGzY-70" value="" style="endArrow=classic;html=1;rounded=0;exitX=0.5;exitY=1;exitDx=0;exitDy=0;entryX=0.36;entryY=-0.05;entryDx=0;entryDy=0;entryPerimeter=0;" edge="1" parent="l1uv4vAsVJdocjP3RGzY-62" source="l1uv4vAsVJdocjP3RGzY-67" target="l1uv4vAsVJdocjP3RGzY-66">
          <mxGeometry width="50" height="50" relative="1" as="geometry">
            <mxPoint x="60" y="-30" as="sourcePoint" />
            <mxPoint x="110" y="-80" as="targetPoint" />
          </mxGeometry>
        </mxCell>
        <mxCell id="l1uv4vAsVJdocjP3RGzY-96" value="9" style="ellipse;whiteSpace=wrap;html=1;aspect=fixed;strokeWidth=2;fontFamily=Tahoma;spacingBottom=4;spacingRight=2;strokeColor=#d3d3d3;" vertex="1" parent="l1uv4vAsVJdocjP3RGzY-62">
          <mxGeometry x="270.5" y="50" width="20" height="20" as="geometry" />
        </mxCell>
        <mxCell id="l1uv4vAsVJdocjP3RGzY-103" value="10" style="ellipse;whiteSpace=wrap;html=1;aspect=fixed;strokeWidth=2;fontFamily=Tahoma;spacingBottom=4;spacingRight=2;strokeColor=#d3d3d3;" vertex="1" parent="l1uv4vAsVJdocjP3RGzY-62">
          <mxGeometry x="320.5" y="100" width="20" height="20" as="geometry" />
        </mxCell>
        <mxCell id="l1uv4vAsVJdocjP3RGzY-104" value="10" style="ellipse;whiteSpace=wrap;html=1;aspect=fixed;strokeWidth=2;fontFamily=Tahoma;spacingBottom=4;spacingRight=2;strokeColor=#d3d3d3;" vertex="1" parent="l1uv4vAsVJdocjP3RGzY-62">
          <mxGeometry x="100.5" y="100" width="20" height="20" as="geometry" />
        </mxCell>
        <mxCell id="l1uv4vAsVJdocjP3RGzY-71" value="" style="endArrow=classic;html=1;rounded=0;" edge="1" parent="1" source="l1uv4vAsVJdocjP3RGzY-10" target="l1uv4vAsVJdocjP3RGzY-62">
          <mxGeometry width="50" height="50" relative="1" as="geometry">
            <mxPoint x="400" y="420" as="sourcePoint" />
            <mxPoint x="450" y="370" as="targetPoint" />
          </mxGeometry>
        </mxCell>
        <mxCell id="l1uv4vAsVJdocjP3RGzY-72" value="" style="image;html=1;image=img/lib/clip_art/finance/Pie_Chart_128x128.png" vertex="1" parent="1">
          <mxGeometry x="512.5" y="730" width="80" height="80" as="geometry" />
        </mxCell>
        <mxCell id="l1uv4vAsVJdocjP3RGzY-73" value="" style="endArrow=classic;html=1;rounded=0;exitX=0.5;exitY=1;exitDx=0;exitDy=0;entryX=0.5;entryY=0;entryDx=0;entryDy=0;" edge="1" parent="1" source="l1uv4vAsVJdocjP3RGzY-64" target="l1uv4vAsVJdocjP3RGzY-72">
          <mxGeometry width="50" height="50" relative="1" as="geometry">
            <mxPoint x="400" y="630" as="sourcePoint" />
            <mxPoint x="450" y="580" as="targetPoint" />
          </mxGeometry>
        </mxCell>
        <mxCell id="l1uv4vAsVJdocjP3RGzY-74" value="" style="endArrow=classic;html=1;rounded=0;exitX=0.5;exitY=1;exitDx=0;exitDy=0;entryX=0.75;entryY=0;entryDx=0;entryDy=0;" edge="1" parent="1" source="l1uv4vAsVJdocjP3RGzY-66" target="l1uv4vAsVJdocjP3RGzY-72">
          <mxGeometry width="50" height="50" relative="1" as="geometry">
            <mxPoint x="563" y="630" as="sourcePoint" />
            <mxPoint x="563" y="740" as="targetPoint" />
          </mxGeometry>
        </mxCell>
        <mxCell id="l1uv4vAsVJdocjP3RGzY-75" value="" style="endArrow=classic;html=1;rounded=0;exitX=0.5;exitY=1;exitDx=0;exitDy=0;entryX=0.25;entryY=0;entryDx=0;entryDy=0;" edge="1" parent="1" source="l1uv4vAsVJdocjP3RGzY-65" target="l1uv4vAsVJdocjP3RGzY-72">
          <mxGeometry width="50" height="50" relative="1" as="geometry">
            <mxPoint x="563" y="630" as="sourcePoint" />
            <mxPoint x="563" y="740" as="targetPoint" />
          </mxGeometry>
        </mxCell>
        <mxCell id="l1uv4vAsVJdocjP3RGzY-76" value="&lt;div&gt;&lt;b&gt;PowerBI&lt;/b&gt;&lt;br&gt;&lt;/div&gt;" style="text;html=1;strokeColor=none;fillColor=none;align=center;verticalAlign=middle;whiteSpace=wrap;rounded=0;" vertex="1" parent="1">
          <mxGeometry x="577.5" y="750" width="90" height="20" as="geometry" />
        </mxCell>
        <mxCell id="l1uv4vAsVJdocjP3RGzY-79" value="&lt;div&gt;&lt;b&gt;Consumer and Strategic Decision Maker&lt;/b&gt;&lt;br&gt;&lt;/div&gt;" style="text;html=1;strokeColor=none;fillColor=none;align=center;verticalAlign=middle;whiteSpace=wrap;rounded=0;" vertex="1" parent="1">
          <mxGeometry x="320" y="750" width="90" height="45" as="geometry" />
        </mxCell>
        <mxCell id="l1uv4vAsVJdocjP3RGzY-83" value="1" style="ellipse;whiteSpace=wrap;html=1;aspect=fixed;strokeWidth=2;fontFamily=Tahoma;spacingBottom=4;spacingRight=2;strokeColor=#d3d3d3;" vertex="1" parent="1">
          <mxGeometry x="340" y="212" width="20" height="20" as="geometry" />
        </mxCell>
        <mxCell id="l1uv4vAsVJdocjP3RGzY-84" value="2" style="ellipse;whiteSpace=wrap;html=1;aspect=fixed;strokeWidth=2;fontFamily=Tahoma;spacingBottom=4;spacingRight=2;strokeColor=#d3d3d3;" vertex="1" parent="1">
          <mxGeometry x="423.5" y="339" width="20" height="20" as="geometry" />
        </mxCell>
        <mxCell id="l1uv4vAsVJdocjP3RGzY-85" value="3" style="ellipse;whiteSpace=wrap;html=1;aspect=fixed;strokeWidth=2;fontFamily=Tahoma;spacingBottom=4;spacingRight=2;strokeColor=#d3d3d3;" vertex="1" parent="1">
          <mxGeometry x="100" y="290" width="20" height="20" as="geometry" />
        </mxCell>
        <mxCell id="l1uv4vAsVJdocjP3RGzY-88" value="4" style="ellipse;whiteSpace=wrap;html=1;aspect=fixed;strokeWidth=2;fontFamily=Tahoma;spacingBottom=4;spacingRight=2;strokeColor=#d3d3d3;" vertex="1" parent="1">
          <mxGeometry x="500" y="50" width="20" height="20" as="geometry" />
        </mxCell>
        <mxCell id="l1uv4vAsVJdocjP3RGzY-89" value="5" style="ellipse;whiteSpace=wrap;html=1;aspect=fixed;strokeWidth=2;fontFamily=Tahoma;spacingBottom=4;spacingRight=2;strokeColor=#d3d3d3;" vertex="1" parent="1">
          <mxGeometry x="470" y="130" width="20" height="20" as="geometry" />
        </mxCell>
        <mxCell id="l1uv4vAsVJdocjP3RGzY-90" value="6" style="ellipse;whiteSpace=wrap;html=1;aspect=fixed;strokeWidth=2;fontFamily=Tahoma;spacingBottom=4;spacingRight=2;strokeColor=#d3d3d3;" vertex="1" parent="1">
          <mxGeometry x="520" y="270" width="20" height="20" as="geometry" />
        </mxCell>
        <mxCell id="l1uv4vAsVJdocjP3RGzY-94" value="7" style="ellipse;whiteSpace=wrap;html=1;aspect=fixed;strokeWidth=2;fontFamily=Tahoma;spacingBottom=4;spacingRight=2;strokeColor=#d3d3d3;" vertex="1" parent="1">
          <mxGeometry x="647.5" y="212" width="20" height="20" as="geometry" />
        </mxCell>
        <mxCell id="l1uv4vAsVJdocjP3RGzY-95" value="8" style="ellipse;whiteSpace=wrap;html=1;aspect=fixed;strokeWidth=2;fontFamily=Tahoma;spacingBottom=4;spacingRight=2;strokeColor=#d3d3d3;" vertex="1" parent="1">
          <mxGeometry x="755" y="317" width="20" height="20" as="geometry" />
        </mxCell>
        <mxCell id="l1uv4vAsVJdocjP3RGzY-102" value="10" style="ellipse;whiteSpace=wrap;html=1;aspect=fixed;strokeWidth=2;fontFamily=Tahoma;spacingBottom=4;spacingRight=2;strokeColor=#d3d3d3;" vertex="1" parent="1">
          <mxGeometry x="542.5" y="550" width="20" height="20" as="geometry" />
        </mxCell>
        <mxCell id="l1uv4vAsVJdocjP3RGzY-105" value="11" style="ellipse;whiteSpace=wrap;html=1;aspect=fixed;strokeWidth=2;fontFamily=Tahoma;spacingBottom=4;spacingRight=2;strokeColor=#d3d3d3;" vertex="1" parent="1">
          <mxGeometry x="610" y="730" width="20" height="20" as="geometry" />
        </mxCell>
        <mxCell id="l1uv4vAsVJdocjP3RGzY-110" style="edgeStyle=orthogonalEdgeStyle;rounded=0;orthogonalLoop=1;jettySize=auto;html=1;exitX=1;exitY=0.5;exitDx=0;exitDy=0;exitPerimeter=0;entryX=0;entryY=0.5;entryDx=0;entryDy=0;" edge="1" parent="1" source="l1uv4vAsVJdocjP3RGzY-108" target="l1uv4vAsVJdocjP3RGzY-72">
          <mxGeometry relative="1" as="geometry" />
        </mxCell>
        <mxCell id="l1uv4vAsVJdocjP3RGzY-108" value="" style="verticalLabelPosition=bottom;sketch=0;html=1;fillColor=#A153A0;strokeColor=#ffffff;verticalAlign=top;align=center;points=[[0,0.5,0],[0.125,0.25,0],[0.25,0,0],[0.5,0,0],[0.75,0,0],[0.875,0.25,0],[1,0.5,0],[0.875,0.75,0],[0.75,1,0],[0.5,1,0],[0.125,0.75,0]];pointerEvents=1;shape=mxgraph.cisco_safe.compositeIcon;bgIcon=ellipse;resIcon=mxgraph.cisco_safe.design.user;" vertex="1" parent="1">
          <mxGeometry x="415" y="745" width="50" height="50" as="geometry" />
        </mxCell>
        <mxCell id="l1uv4vAsVJdocjP3RGzY-111" value="12" style="ellipse;whiteSpace=wrap;html=1;aspect=fixed;strokeWidth=2;fontFamily=Tahoma;spacingBottom=4;spacingRight=2;strokeColor=#d3d3d3;" vertex="1" parent="1">
          <mxGeometry x="470" y="730" width="20" height="20" as="geometry" />
        </mxCell>
      </root>
    </mxGraphModel>
  </diagram>
</mxfile>
